<?xml version="1.0" standalone="no"?>
<!DOCTYPE svg PUBLIC "-//W3C//DTD SVG 20010904//EN"
 "http://www.w3.org/TR/2001/REC-SVG-20010904/DTD/svg10.dtd">
<svg version="1.0" xmlns="http://www.w3.org/2000/svg"
 width="225.000000pt" height="225.000000pt" viewBox="0 0 225.000000 225.000000"
 preserveAspectRatio="xMidYMid meet">

<g transform="translate(0.000000,225.000000) scale(0.100000,-0.100000)"
fill="#000000" stroke="none">
<path d="M2130 1125 l0 -1125 60 0 60 0 0 1125 0 1125 -60 0 -60 0 0 -1125z"/>
<path d="M1961 1828 c-13 -22 -13 -22 4 -8 17 14 18 13 12 -3 -4 -10 -3 -16 2
-12 5 3 12 -1 14 -7 4 -8 6 -7 6 4 1 9 -4 20 -9 23 -6 4 -8 11 -5 16 4 5 2 9
-2 9 -5 0 -14 -10 -22 -22z"/>
<path d="M1997 1740 c9 -22 18 -38 20 -36 5 5 -24 76 -31 76 -2 0 3 -18 11
-40z"/>
<path d="M2051 1753 c-1 -14 5 -23 14 -23 8 0 15 7 15 16 0 8 -4 13 -9 10 -5
-4 -12 0 -14 6 -3 7 -6 3 -6 -9z"/>
<path d="M1845 1706 c10 -14 19 -26 22 -26 7 0 -17 39 -28 46 -6 3 -3 -5 6
-20z"/>
<path d="M2071 1681 c-1 -16 -5 -21 -16 -17 -11 4 -15 -2 -14 -22 0 -15 5 -36
10 -47 8 -17 8 -16 4 7 -3 18 0 30 11 36 10 6 14 18 11 38 -3 24 -4 25 -6 5z"/>
<path d="M2015 1588 c-6 -31 -7 -54 -3 -52 10 6 21 67 16 90 -1 10 -8 -8 -13
-38z"/>
<path d="M2072 1555 c0 -16 2 -22 5 -12 2 9 2 23 0 30 -3 6 -5 -1 -5 -18z"/>
<path d="M1950 1438 c-12 -22 -12 -22 6 -6 10 10 15 20 12 24 -4 3 -12 -5 -18
-18z"/>
<path d="M1981 1426 c-9 -10 -8 -15 2 -19 8 -3 13 3 13 14 0 23 0 23 -15 5z"/>
<path d="M1912 1400 c-9 -15 -9 -21 1 -26 6 -4 9 -4 5 1 -4 4 -3 14 4 22 6 7
9 15 7 18 -3 2 -10 -4 -17 -15z"/>
<path d="M1899 1343 c-13 -16 -12 -17 4 -4 9 7 17 15 17 17 0 8 -8 3 -21 -13z"/>
<path d="M1831 1317 c-13 -21 -12 -21 5 -5 10 10 16 20 13 22 -3 3 -11 -5 -18
-17z"/>
<path d="M1877 1013 c-4 -3 -7 -11 -7 -17 0 -6 5 -5 12 2 6 6 9 14 7 17 -3 3
-9 2 -12 -2z"/>
</g>
</svg>
